<svg xmlns="http://www.w3.org/2000/svg" enable-background="new 0 0 32 32" viewBox="0 0 32 32" id="image"><path d="M3 24.3398438c.5527344 0 1-.4477539 1-1v-.9998779V7.5c0-.5512695.4482422-1 1-1h14.8400269.9998169c.5527344 0 1-.4477539 1-1s-.4472656-1-1-1H5c-1.6542969 0-3 1.3457031-3 3v15.8398438C2 23.8920898 2.4472656 24.3398438 3 24.3398438zM28.49823 4.9162598l1.2078247-1.2077637c.390625-.390625.390625-1.0234375 0-1.4140625s-1.0234375-.390625-1.4140625 0l-2.4971313 2.4970093c-.0012817.0011597-.0024414.0023193-.0036011.0036011L9.2645264 21.321167c-.0007324.0007324-.0015259.0015259-.0022583.0022583l-6.9683228 6.9680786c-.390625.390625-.390625 1.0234375 0 1.4140625.1953125.1953125.4511719.2929688.7070312.2929688s.5117188-.0976562.7070312-.2929688L5.9136353 27.5H27c1.6542969 0 3-1.3457031 3-3v-17C30 6.3938599 29.3915405 5.4364624 28.49823 4.9162598zM28 24.5c0 .5512695-.4482422 1-1 1H7.9137573l2.4692383-2.4691772 15.81427.0390015c.0009766 0 .0019531 0 .0029297 0 .375 0 .71875-.2099609.8896484-.5439453.171875-.3344727.140625-.7373047-.0791016-1.0419922l-3.7099609-5.1298828c-.2578125-.3544922-.7138672-.4995117-1.1259766-.3632812l-3.3164062 1.1020508-1.3103638-1.2266846 1.7567749-1.7567749c.597168.5880127 1.4113159.9404907 2.2850342.9404907 1.7919922 0 3.25-1.4580078 3.25-3.25 0-.8752441-.3532715-1.6879272-.9436035-2.2817383L26.9144287 6.5H27c.5517578 0 1 .4487305 1 1V24.5zM22.4727783 10.9414673c.2231445.2266235.3670654.526001.3670654.8583374 0 .6894531-.5605469 1.25-1.25 1.25-.3317871 0-.6325073-.1422729-.8621826-.3632812L22.4727783 10.9414673zM16.1329346 17.2810669l1.7938232 1.678894c.2685547.2514648.6533203.3349609 1 .21875l3.1826172-1.0585938 2.1298828 2.9443359-11.8609619-.0288086L16.1329346 17.2810669z"></path><path d="M13.0107422,11.6376953c-0.2148438-0.199707-0.5068359-0.2910156-0.796875-0.2607422
	c-0.2910156,0.0341797-0.5527344,0.1943359-0.7158203,0.4379883l-3.2900391,4.9296875
	c-0.2688599,0.4028931-0.1903076,0.9180908,0.1391602,1.2481689c0.0462646,0.0463867,0.081543,0.1008301,0.1381836,0.1385498
	c0.1699219,0.1142578,0.3632812,0.168457,0.5537109,0.168457c0.3232422,0,0.6396484-0.15625,0.8330078-0.4448242
	l2.6376953-3.9526367c0.4023438,0.3647461,1.0273438,0.3383789,1.4023438-0.0610352
	c0.3671875-0.3953247,0.34729-1.0046997-0.0300903-1.3833618c-0.0090332-0.0090942-0.012207-0.0214233-0.0216675-0.0302124
	L13.0107422,11.6376953z"></path></svg>